<svg xmlns="http://www.w3.org/2000/svg" viewBox="0 0 2000 2000"><path fill="#ffe088" d="M1489.971 404.019c5.235 3.022 9.487 10.38 9.469 16.4s-4.297 8.452-9.531 5.43c-5.235-3.022-9.487-10.381-9.47-16.4.017-6.02 4.296-8.453 9.532-5.43z" class="colorffe088 svgShape"/><path fill="#ffffff" d="M1153.793 269.505c.02-6.902 4.688-9.57 10.505-6.212l399.798 230.824c5.817 3.358 10.455 11.4 10.435 18.301" class="colorfff svgShape"/><path fill="#c5d4dd" d="m1655.578 440.199-2.732 982.093c0 11.848-4.252 20.655-10.932 24.6l-64.38 37.352c6.984-4.256 11.236-12.752 11.236-24.896l2.428-981.796c0-24.303-16.702-53.455-37.96-65.599l-378.383-218.64c-10.63-6.08-20.541-6.128-27.525-2.184l64.877-37.911c6.68-3.944 16.398-3.336 27.028 2.728L1617.618 374.6c21.257 12.144 37.96 41.296 37.96 65.599z" class="colorc5d4dd svgShape"/><path fill="#dce8f1" d="M1628.522 679.61c3.164-1.827 6.026-2.01 8.074-.844s3.384 3.687 3.394 7.32l.148 52.134c.021 7.27-5.066 16.079-11.394 19.733-6.277 3.624-11.396.707-11.417-6.563l-.148-52.134c-.02-7.212 5.066-16.022 11.343-19.646z" class="colordce8f1 svgShape"/><path fill="#ffffff" d="m1608.612 650.885-.16-52.114c0-7.193 5.036-16.064 11.35-19.662 3.197-1.838 5.995-1.916 8.073-.796l8.473 4.953c-2.078-1.198-4.956-1.038-8.073.8-6.314 3.598-11.35 12.388-11.35 19.584l.16 52.192c0 3.598 1.279 6.155 3.357 7.353l-8.472-4.875c-2.079-1.198-3.358-3.754-3.358-7.435zm27.976 27.898c-2.078-1.198-4.875-.96-8.073.8-6.235 3.677-11.35 12.466-11.35 19.662l.16 52.114c0 3.676 1.279 6.155 3.357 7.353l-8.472-4.875c-2.078-1.202-3.357-3.758-3.357-7.353l-.16-52.118c0-7.271 5.115-16.064 11.35-19.662 3.197-1.838 6.075-1.998 8.073-.878l8.472 4.957z" class="colorfff svgShape"/><path fill="#dce8f1" d="M1628.251 584.028c3.164-1.827 6.026-1.953 8.074-.787 2.048 1.169 3.384 3.629 3.394 7.263l.148 52.131c.021 7.33-5.066 16.143-11.394 19.796-6.277 3.624-11.397.704-11.417-6.626l-.148-52.131c-.02-7.213 5.066-16.023 11.343-19.646z" class="colordce8f1 svgShape"/><path fill="#616173" d="m1553.635 412.023-378.521-218.759c-20.874-12.245-37.852-2.501-37.852 21.989l-2.784 981.651c0 24.218 16.701 53.722 37.853 65.966l378.521 218.487c21.153 12.245 38.13 2.215 38.13-21.989l2.506-981.937c.001-24.203-16.7-53.435-37.853-65.408zm-63.736-8.073c5.288 3.071 9.464 10.301 9.464 16.43s-4.176 8.63-9.464 5.558c-5.288-3.058-9.462-10.288-9.462-16.417 0-6.114 4.453-8.629 9.462-5.571z" class="color616173 svgShape"/><path fill="#545466" d="M1457.979 385.548c5.235 3.022 9.486 10.38 9.469 16.4-.017 6.02-4.296 8.452-9.531 5.43-5.235-3.023-9.487-10.381-9.47-16.4s4.297-8.452 9.532-5.43zm-45.182-24.075c4.072 2.351 7.55 8.379 7.536 13.274-.013 4.678-3.515 6.676-7.586 4.325l-96.944-55.971c-4.072-2.351-7.55-8.379-7.537-13.056.014-4.895 3.515-6.894 7.587-4.543l96.944 55.971zm-173.906-105.736c7.158 4.132 12.865 14.017 12.842 22.24-.023 8.223-5.768 11.496-12.926 7.363-.238-.137-.472-.298-.707-.446-6.64-4.268-12.157-13.851-12.135-21.793.022-7.942 5.576-11.134 12.219-7.733.236.122.469.232.707.369z" class="color545466 svgShape"/><path fill="#c2ecff" d="m1574.527 512.468-2.298 869.434c0 6.896-4.704 9.738-10.502 6.458l-399.873-230.844c-5.799-3.392-10.393-11.597-10.393-18.601v-6.784l1.094-397.136.438-152.947.437-170.56.328-142.012 420.769 242.992z" class="colorc2ecff svgShape"/><path fill="#93d4ff" d="m1348.716 550.322-.328 115.857c0 15.097-10.613 21.224-23.85 13.563l-171.546-97.695.437-170.56 171.656 97.807c13.129 7.55 23.741 25.926 23.631 41.028zm-20.02 554.025c-4.705 23.74-18.818 35.77-45.294 38.724-13.348 1.64-28.883-1.309-45.294-4.263l-8.205-1.533c-23.631-4.487-50.435-7.661-75.051-.438-1.094-1.533-2.188-3.173-3.391-4.706l1.094-397.136c.109 0 .109.112.219.112l6.346 3.718c9.299 5.358 17.614 9.733 25.929 13.237 3.829 1.752 7.22 3.392 10.831 4.925l1.532.545c2.407.764 24.397 8.643 35.884 11.378 1.86.438 3.611.876 5.251 1.09 5.908 1.095 11.816 2.302 17.615 3.285 4.704.983 9.19 1.752 13.894 2.516 11.925 19.253 22.975 39.606 33.04 58.751-12.472 16.298-18.052 38.398-16.848 65.643.984 23.083 6.345 49.12 15.863 76.802 2.845 8.424 5.908 16.63 8.753 24.835 4.266 11.704 8.314 22.757 11.815 33.697 8.095 25.057 10.173 47.589 6.017 68.818z" class="color93d4ff svgShape"/><path fill="#ff6c85" d="M1461.489 966.26c5.697 3.289 10.146 11.132 10.128 17.543l-.136 47.849c-.018 6.481-4.497 9.1-10.194 5.81l-41.524-23.974c-5.697-3.289-10.146-11.062-10.128-17.543l.136-47.849c.018-6.411 4.497-9.099 10.194-5.81l41.524 23.974z" class="colorff6c85 svgShape"/><path fill="#ffd469" d="M1541.366 1012.378c5.698 3.289 10.146 11.132 10.128 17.543l-.136 47.849c-.018 6.481-4.497 9.1-10.194 5.81l-41.524-23.974c-5.639-3.255-10.146-11.062-10.128-17.543l.136-47.849c.018-6.411 4.556-9.066 10.194-5.81l41.524 23.974z" class="colorffd469 svgShape"/><path fill="#85cdfd" d="M1543.171 977.863c3.994 2.306 7.272 7.917 7.259 12.505l-.028 9.718-140.549-81.146.028-9.718c.013-4.588 3.254-6.436 7.248-4.13l126.042 72.771z" class="color85cdfd svgShape"/><path fill="#75d178" d="M1461.238 1054.942c5.698 3.289 10.146 11.132 10.128 17.609l-.135 47.783c-.019 6.547-4.497 9.1-10.194 5.81l-41.524-23.974c-5.697-3.289-10.146-10.996-10.128-17.543l.135-47.783c.018-6.477 4.497-9.165 10.194-5.876l41.524 23.974z" class="color75d178 svgShape"/><path fill="#3765c7" d="M1541.115 1101.06c5.698 3.289 10.146 11.132 10.128 17.609l-.135 47.783c-.019 6.547-4.497 9.1-10.194 5.81l-41.524-23.974c-5.638-3.255-10.146-10.996-10.128-17.543l.135-47.783c.018-6.477 4.556-9.131 10.194-5.876l41.524 23.974z" class="color3765c7 svgShape"/><path fill="#dce8f1" d="M1042.163 1276.671c-1.532-10.283-2.954-20.679-4.376-30.962-.109-.438-.219-.657-.547-.764-.329-.219-.875-.331-1.641-.331-2.953 0-5.908 0-8.862-.107-12.034 0-24.068-.112-36.213-.331-1.86.112-2.297.55-2.407 1.426-.547 6.565-.985 13.019-1.422 19.578-.109.769-.109 1.645-.219 2.409-.109 1.095-.656 1.64-2.626 1.533h-3.829c-10.394-.112-20.897-.219-31.29-.438-2.297 0-4.157.326-5.908 1.314-8.752 5.251-17.614 10.39-26.476 15.535-1.751.876-2.079 1.752-1.86 3.061 1.532 5.363 2.845 10.721 4.157 16.085.219.764.438 1.64.656 2.404.329 1.095-.765 1.645-2.626 1.426-1.313-.112-2.626-.331-3.829-.438-7.659-.876-15.317-1.64-22.866-2.516-2.626-.331-5.361-.55-8.315-.876.548 2.842.876 5.47 1.204 8.093.656 3.942 1.313 7.773 1.86 11.71.109.983.328 2.078.437 3.061.219 1.533-.328 1.859-2.625 1.752-1.86-.112-3.719-.219-5.58-.331-8.424-.438-16.629-.876-24.944-1.528-4.814-.331-8.971-.331-11.925 2.297l-1.75 1.09c-1.86.876-2.188 1.971-2.188 3.285.219 6.015.547 11.923.766 18.051.109 1.207.109 2.516.219 3.718 0 1.095-.438 1.645-2.735 1.645h-6.565c-10.721-.112-21.334 0-32.055 0-2.406.107-4.267.438-6.127 1.421-3.72 2.404-7.768 4.594-11.706 6.891l-17.286 10.064c-1.203.769-2.079.876-3.61 0a35.037 35.037 0 0 0-2.735-1.528c-.438-.219-.875-.55-1.313-.769-.438-.219-.766-.438-1.422-.876-1.094-.652-1.969-.545-3.173.112-4.923 2.954-10.065 5.796-14.988 8.862-1.531.876-2.953.983-4.814.657-8.424-1.752-17.067-2.628-26.038-3.066-16.848-.876-33.149.331-49.013 3.499-8.533 1.752-16.739 3.83-24.179 6.677-11.268 4.263-21.224 9.188-29.539 15.316-7.439 5.358-13.348 11.16-17.505 17.506a27.483 27.483 0 0 0-2.188 3.173c-3.282 5.577-5.251 11.266-6.017 17.175-1.094 8.318.328 16.411 4.267 24.509 2.735 5.47 6.674 10.609 11.706 15.535 4.157 4.268 9.19 8.205 14.769 11.817 1.204.657 2.298 1.309 3.501 1.966 9.081 5.363 19.146 9.632 30.743 13.018 12.363 3.611 25.054 6.02 38.62 7.003 14.769.988 29.43.657 43.762-1.533a258.169 258.169 0 0 0 23.74-4.92c9.299-2.409 17.614-5.908 25.382-9.738 11.16-5.47 19.693-12.142 27.242-19.365 4.157-3.937 5.58-8.424 8.534-12.58 2.844-3.937 3.61-8.424 4.814-12.693 1.094-4.813.875-9.733 0-14.659-.766-3.937-1.97-7.767-3.83-11.597-.328-.657-.656-1.421-1.094-2.078-.766-1.314-.656-2.078 1.203-3.173.328-.219.766-.438 1.094-.657 77.458-44.964 154.698-89.933 232.266-134.896l1.531-.983.985-1.533c-.327-3.062-.765-6.235-1.202-9.408zm-406.766 149.993c12.8-7.222 33.259-7.222 45.949.112 12.582 7.217 12.691 19.146.219 26.475-12.253 7.11-32.931 7.436-45.294.326-.109-.107-.328-.219-.547-.326-.109-.112-.328-.219-.437-.331-12.581-7.222-12.034-19.034.11-26.256zm379.196-140.693-198.241 115.2c-2.516 1.533-2.516 1.533-5.033 0-.547-.326-1.094-.657-1.75-.983-.328-.219-.547-.326-1.313-.764-1.313-.657-.875-1.314.547-2.083l199.773-116.183c2.735-1.533 3.063-1.752 4.267-1.095.437.326.984.657 1.86 1.095 4.047 2.404 4.047 2.404-.11 4.813z" class="colordce8f1 svgShape"/><path fill="#ffb839" d="m1004.999 1261.186-.05 17.613c.002-.572-.981-1.139-2.943-2.272-.774-.447-1.3-.798-1.716-1.038-1.177-.68-1.474-.464-4.058 1.038l.05-17.613c2.584-1.502 2.881-1.717 4.058-1.038.416.24.942.591 1.716 1.038 1.961 1.133 2.944 1.701 2.943 2.272zM1029.447 1263.612l-.05 17.613-.955 1.435.05-17.613z" class="colorffb839 svgShape"/><path fill="#ffb839" d="m1028.492 1265.047-.05 17.613-1.509.877.05-17.614zM906.528 1282.844l.05-17.613c0 .218.031.448.088.693l-.05 17.613a2.95 2.95 0 0 1-.088-.693zm4.754 1.045-.05 17.613c0-.102-.015-.21-.045-.324-1.547-5.893-2.954-11.788-4.571-17.641l.05-17.613c1.617 5.853 3.024 11.747 4.571 17.641.031.114.045.222.045.324zm-34.805 5.093-.05 17.613c-.287-2.47-.578-4.938-1.073-7.688l.05-17.613c.495 2.749.786 5.218 1.073 7.688zm2.255 14.581-.05 17.613a3.566 3.566 0 0 0-.042-.525c-.646-4.658-1.427-9.318-2.212-14.056l.05-17.613c.785 4.738 1.566 9.398 2.212 14.056.028.195.042.369.042.525zm-46.752 23.023.05-17.613c0 .105.003.211.01.319l-.05 17.613a5.753 5.753 0 0 1-.01-.319zm.934 3.454-.05 17.613c-.313-6.93-.56-13.818-.874-20.748l.05-17.613c.314 6.93.562 13.817.874 20.748zM996.281 1258.914l-.05 17.613-190.371 110.632.05-17.613z" class="colorffb839 svgShape"/><path fill="#ffb839" d="m804.631 1388.365.05-17.613c.001-.378.456-.758 1.229-1.207l-.05 17.613c-.772.449-1.227.829-1.229 1.207zm-1.548 26.136.05-17.613c.002-.604.448-1.137 1.547-1.776 74.148-43.01 148.158-86.1 222.304-129.189l-.05 17.613c-74.146 43.089-148.156 86.179-222.304 129.189-1.099.639-1.546 1.172-1.547 1.776z" class="colorffb839 svgShape"/><path fill="#dba293" d="m808.936 1418.667-.05 17.613c-.006 2.153-.223 4.297-.719 6.432l.05-17.613c.496-2.135.713-4.279.719-6.432z" class="colordba293 svgShape"/><path fill="#ffb839" d="m690.834 1439.381-.05 17.613c.014-4.82-3.142-9.638-9.46-13.285-12.692-7.328-33.178-7.328-45.927-.079-6.195 3.6-9.382 8.423-9.396 13.247l.05-17.613c.014-4.824 3.201-9.646 9.396-13.247 12.749-7.249 33.235-7.249 45.927.079 6.318 3.648 9.473 8.465 9.46 13.285zm-108.858-4.057.05-17.613c-.017 6.177 1.492 12.263 4.458 18.301 2.574 5.216 6.382 10.115 11.083 14.815 4.012 4.061 8.842 7.806 14.157 11.27l-.05 17.613c-5.315-3.464-10.145-7.209-14.157-11.27-4.701-4.7-8.509-9.599-11.083-14.815-2.966-6.037-4.475-12.124-4.458-18.301z" class="colorffb839 svgShape"/><path fill="#ffe088" d="M1028.268 1255.335c-.547-3.606-1.094-7.217-1.532-10.828l-2.626-18.708c-.109-.331-.219-.657-.547-.769-.329-.214-.875-.214-1.532-.214-14.332-.112-28.664-.224-42.886-.438-1.86 0-2.298.545-2.407 1.309-.547 7.003-1.094 14.007-1.531 21.01-.109.983-.547 1.528-2.517 1.421-11.159-.112-22.209-.219-33.478-.438-2.188 0-3.938.326-5.58 1.314a2573.02 2573.02 0 0 1-25.272 14.765c-1.641.876-1.969 1.645-1.641 2.847 1.532 5.908 2.954 11.817 4.485 17.613.328 1.095-.766 1.64-2.516 1.421-8.534-.983-16.958-1.859-25.491-2.735-2.407-.326-5.032-.545-7.767-.876.437 2.735.765 5.144 1.094 7.66.766 4.706 1.532 9.407 2.188 14.007.218 1.528-.329 1.859-2.517 1.747-9.846-.545-19.474-.983-29.101-1.747-4.595-.331-8.533-.331-11.268 2.185l-1.751.988c-1.75.764-2.079 1.859-2.079 3.168.328 6.896.656 13.788.875 20.679 0 1.095-.328 1.64-2.516 1.533-12.254 0-24.507.107-36.87.107-2.188 0-4.048.331-5.689 1.314-3.72 2.297-7.439 4.487-11.159 6.672l-16.52 9.52c-1.094.769-2.079.769-3.501 0-.766-.545-1.75-1.095-2.516-1.533-.437-.219-.875-.433-1.313-.657-.437-.214-.766-.438-1.313-.871-1.094-.657-1.86-.55-3.064.107-4.704 2.847-9.518 5.582-14.332 8.424-1.422.876-2.735.983-4.485.657-8.096-1.64-16.301-2.516-24.835-2.954-16.082-.764-31.618.331-46.715 3.392-8.096 1.64-15.864 3.611-22.975 6.346-10.721 4.044-20.24 8.75-28.117 14.546-8.315 6.021-14.55 12.586-18.817 19.808-3.173 5.246-4.923 10.716-5.799 16.298-.328 2.954-.437 5.908 0 8.862.438 4.813 1.86 9.626 4.157 14.439 2.516 5.251 6.346 10.064 11.05 14.771 4.048 4.049 8.862 7.874 14.222 11.272.985.652 2.079 1.309 3.173 1.966 8.752 5.032 18.27 9.188 29.43 12.361 11.706 3.392 23.85 5.689 36.76 6.677 14.003.876 28.008.652 41.683-1.426 7.767-1.309 15.316-2.842 22.537-4.813 8.862-2.185 16.739-5.577 24.178-9.188 10.613-5.251 18.818-11.598 25.93-18.489 4.048-3.723 5.47-7.986 8.205-11.929 1.86-2.623 2.844-5.577 3.719-8.531.219-1.202.547-2.409.875-3.611.109-.764.328-1.533.328-2.297.547-3.83.328-7.767-.328-11.704-.875-4.38-2.298-8.756-4.704-12.912-.766-1.314-.656-2.078 1.094-3.061 74.177-42.998 148.243-86.103 222.31-129.207l1.532-.876.984-1.421c-.436-2.953-.764-6.019-1.202-8.973zm-346.702 197.916c-12.253 7.11-32.931 7.436-45.294.326-.109-.107-.328-.219-.547-.326-.109-.112-.328-.219-.437-.331-12.582-7.222-12.035-19.034.11-26.256 12.8-7.222 33.259-7.222 45.949.112 12.581 7.217 12.691 19.146.219 26.475zm320.445-189.054L813.18 1373.933c-2.407 1.421-2.407 1.421-4.814 0-.548-.331-1.094-.657-1.641-.988-.328-.107-.656-.326-1.313-.657-1.203-.764-.876-1.309.547-2.078l21.881-12.687 9.081-5.363 40.042-23.195 7.768-4.482 28.117-16.411 5.798-3.392 61.376-35.556 6.674-3.942 9.628-5.577c2.516-1.533 2.845-1.752 4.048-.983.437.219.875.545 1.641.983 3.937 2.295 3.937 2.295-.002 4.592z" class="colorffe088 svgShape"/><path fill="#ffb839" d="m808.255 1425.151-.108 17.608c-1.08 3.999-1.836 8.319-4.537 12.101-2.809 3.888-4.213 8.208-8.211 11.99-7.13 6.805-15.233 13.177-25.928 18.368-7.347 3.672-15.233 7.021-24.092 9.29-7.346 1.836-14.909 3.455-22.579 4.753-13.721 2.052-27.657 2.374-41.702 1.403-12.964-.971-25.063-3.239-36.839-6.699a131.988 131.988 0 0 1-29.385-12.312l-3.242-1.947.108-17.608 3.241 1.947c8.643 4.969 18.258 9.179 29.386 12.312 11.668 3.46 23.875 5.729 36.731 6.699 14.045.971 27.981.649 41.702-1.403a278.363 278.363 0 0 0 22.579-4.753c8.859-2.274 16.745-5.618 24.2-9.295 10.588-5.185 18.69-11.558 25.929-18.363 3.997-3.782 5.402-8.103 8.211-11.996 2.591-3.776 3.455-8.101 4.536-12.095z" class="colorffb839 svgShape"/><path fill="#ecedeb" d="M808.134 208.102c.218-.107.328-.107.437-.107-.328.107-.766.331-1.094.438.219-.107.438-.219.657-.331zm6.805-.951a12.93 12.93 0 0 0-3.195.08c.987-.165 2.056-.192 3.195-.08z" class="colorecedeb svgShape"/><path fill="#ecedeb" d="M818.527 207.888a18.083 18.083 0 0 0-3.589-.737c1.159.107 2.359.342 3.589.737z" class="colorecedeb svgShape"/><g fill="#2559c7" class="color2559c7 svgShape"><path d="M808.134 208.102c.218-.107.328-.107.437-.107-.328.107-.766.331-1.094.438.219-.107.438-.219.657-.331zm6.805-.951a12.93 12.93 0 0 0-3.195.08c.987-.165 2.056-.192 3.195-.08z" fill="#000000" class="color000 svgShape"/><path d="M818.527 207.888a18.083 18.083 0 0 0-3.589-.737c1.159.107 2.359.342 3.589.737z" fill="#000000" class="color000 svgShape"/></g><path fill="#acf9ac" d="m1326.502 476.958-.329 115.863c0 7.548-2.735 12.799-7.002 15.203l-23.084 13.462c4.267-2.409 6.892-7.661 6.892-15.209l.328-115.863c.109-15.096-10.502-33.473-23.631-41.027l-478.003-272.19c-6.564-3.83-12.582-4.268-16.958-1.752l23.194-13.456c4.267-2.516 10.284-2.078 16.958 1.747l477.894 272.197c13.128 7.547 23.741 25.929 23.741 41.025z" class="coloracf9ac svgShape"/><path fill="#75d178" d="M1279.665 449.378c13.132 7.582 23.715 25.909 23.672 41.002l-.329 115.898c-.043 15.093-10.695 21.16-23.827 13.579L801.223 347.623c-13.132-7.582-23.785-25.949-23.742-41.042l.329-115.898c.043-15.093 10.765-21.12 23.897-13.538l477.958 272.233z" class="color75d178 svgShape"/><path fill="#ffffff" d="M1245.728 462.572 807.767 209.713l-.044 21.667 438.005 252.88zM978.965 395.527l-.044 21.668-171.444-98.916.044-21.668zM1245.728 506.05 807.644 253.122l-.044 21.667 438.128 252.955z" class="colorfff svgShape"/><path fill="#85cdfd" d="m1383 456.367-2.011 807.245-9.175-5.297 2.011-807.245zM1534.473 523.6c6.179 3.567 11.158 12.19 11.138 19.292l-.155 54.53c-.02 7.101-5.032 9.956-11.21 6.389l-46.416-25.385c-6.179-3.567-11.191-12.209-11.171-19.311l.155-54.53c.02-7.101 5.065-9.937 11.243-6.37l46.416 25.385z" class="color85cdfd svgShape"/><path fill="#5576db" d="M1524.997 510.289c6.179 3.567 11.158 12.19 11.138 19.292l-.155 54.53c-.02 7.101-5.032 9.956-11.211 6.389l-46.415-25.385c-6.179-3.567-11.191-12.209-11.171-19.31l.155-54.53c.02-7.101 5.065-9.937 11.243-6.37l46.416 25.384z" class="color5576db svgShape"/><path fill="#85cdfd" d="m1552.928 638.947-.013 4.632-92.691-53.515.013-4.632zM1552.765 696.339l-.013 4.63-92.69-53.515.013-4.63zM1552.603 753.678l-.013 4.63-92.691-53.515.013-4.63zM1552.684 725.009l-.013 4.629-92.691-53.515.013-4.629zM1552.847 667.616l-.013 4.633-92.691-53.515.013-4.633z" class="color85cdfd svgShape"/><path fill="#ffffff" d="M1469.333 739.61c5.006 2.89 9.059 9.909 9.042 15.662-.016 5.789-4.095 8.115-9.101 5.225-5.04-2.91-9.092-9.93-9.076-15.719.016-5.754 4.095-8.078 9.135-5.168zm76.488 50.077c2.184 1.261 3.925 4.316 3.918 6.788-.007 2.509-1.76 3.547-3.944 2.286l-55.674-32.143c-2.184-1.261-3.959-4.336-3.952-6.845.007-2.472 1.794-3.49 3.978-2.229l55.674 32.143zm-76.588-14.945c5.006 2.89 9.059 9.909 9.042 15.7-.016 5.754-4.095 8.077-9.101 5.187-5.04-2.91-9.092-9.928-9.076-15.682.017-5.791 4.095-8.114 9.135-5.205zm76.488 50.077c2.184 1.261 3.925 4.316 3.918 6.825-.007 2.509-1.76 3.509-3.944 2.249l-55.674-32.143c-2.184-1.261-3.959-4.298-3.952-6.807.007-2.509 1.794-3.528 3.978-2.267l55.674 32.143zm-76.588-14.944c5.006 2.89 9.059 9.911 9.042 15.7-.016 5.792-4.095 8.115-9.102 5.225-5.04-2.91-9.092-9.928-9.076-15.719.018-5.79 4.097-8.116 9.136-5.206zm76.488 50.117c2.184 1.261 3.925 4.276 3.918 6.785-.007 2.509-1.76 3.509-3.944 2.249l-55.674-32.143c-2.184-1.261-3.959-4.298-3.952-6.807.007-2.509 1.794-3.488 3.977-2.227l55.675 32.143zm-76.587-14.984c5.006 2.89 9.058 9.948 9.042 15.7-.016 5.792-4.095 8.117-9.102 5.227-5.04-2.91-9.092-9.93-9.076-15.721.017-5.752 4.096-8.116 9.136-5.206zm76.488 50.117c2.184 1.261 3.925 4.276 3.918 6.786-.007 2.511-1.76 3.547-3.944 2.286l-55.673-32.143c-2.184-1.261-3.959-4.333-3.952-6.845.007-2.509 1.794-3.488 3.977-2.227l55.674 32.143z" class="colorfff svgShape"/><path fill="#e0e0e0" d="m1004.004 907.601.005.006-46.265 26.886-.005-.006-.005-.006 46.265-26.886a.027.027 0 0 0 .005.006zm-31.338-123.906-.005.008-46.265 26.886.005-.008c15.421-8.962 30.843-17.925 46.265-26.886zm193.438 271.091 29.18-16.958-15.098 8.775-14.081 8.184-.001-.001z" class="colore0e0e0 svgShape"/><path fill="#e22951" d="m1232.58 1021.929-46.262 26.873c-5.381 3.126-12.054 5.111-20.2 5.983a55.762 55.762 0 0 1-6.373.359c-9.228 0-19.539-1.923-30.36-3.878l-6.643-1.262c-19.178-3.486-40.972-6.132-61.021-.299-19.99-29.038-41.693-51.522-60.871-70.069l-6.433-6.283c-13.317-13.016-25.941-25.16-36.673-38.866-21.492-27.294-32.734-50.08-36.462-73.706-3.307-21.133-1.623-37.545 5.11-50.2 2.946-5.441 6.283-10.701 9.709-16.172a940.545 940.545 0 0 0 7.214-11.723c7.876-13.647 12.355-29.64 13.226-47.555 1.112-20.741-3.367-43.827-13.286-68.685 1.413-1.083 2.855-2.134 4.298-3.186 3.938-2.826 8.026-5.561 12.264-8.057l46.292-26.873c-4.268 2.464-8.357 5.2-12.295 8.026-.06.031-.12.09-.21.151-1.383 1.022-2.736 2.043-4.088 3.035 9.92 24.889 14.399 47.975 13.286 68.716-.872 17.886-5.321 33.908-13.196 47.524-2.405 3.907-4.81 7.845-7.245 11.723v.031c-3.427 5.47-6.763 10.701-9.709 16.172-6.733 12.655-8.417 29.067-5.08 50.2 3.697 23.596 14.97 46.412 36.432 73.675-.962.571-1.774 1.052-2.525 1.474.721-.392 1.533-.872 2.525-1.444 10.731 13.647 23.356 25.852 36.703 38.867l6.403 6.253c19.178 18.577 40.881 41.062 60.87 70.04 20.05-5.802 41.873-3.157 61.021.36l6.643 1.262c13.347 2.406 25.941 4.75 36.733 3.518 8.149-.934 14.822-2.858 20.203-5.984z" class="colore22951 svgShape"/><path fill="#e0e0e0" d="m959.831 655.218 46.265-26.886c3.385-1.967 6.875-3.769 10.469-5.317L970.3 649.9c-3.593 1.548-7.084 3.351-10.469 5.318z" class="colore0e0e0 svgShape"/><path fill="#e0e0e0" d="m970.3 649.9 46.265-26.886 11.094 10.749c4.814 4.708 9.559 9.296 14.373 13.925 1.256 1.209 2.582 2.455 3.838 3.664l-46.265 26.886c-1.256-1.209-2.582-2.455-3.838-3.664a2382.99 2382.99 0 0 1-14.373-13.925L970.3 649.9zm29.306 28.339 46.265-26.886c9.7 8.815 27.5 23.114 29.525 24.762l-46.265 26.886c-2.025-1.649-19.825-15.947-29.525-24.762z" class="colore0e0e0 svgShape"/><path fill="#e0e0e0" d="m1029.13 703.001 46.265-26.886 1.187.846-46.264 26.886z" class="colore0e0e0 svgShape"/><path fill="#e0e0e0" d="m1030.318 703.847 46.265-26.886a293.809 293.809 0 0 0 8.448 6.086l-46.265 26.886a292.42 292.42 0 0 1-8.448-6.086z" class="colore0e0e0 svgShape"/><path fill="#e0e0e0" d="m1038.766 709.933 46.265-26.886c6.983 4.995 13.827 9.348 21.371 13.704l-46.265 26.886c-7.544-4.356-14.388-8.708-21.371-13.704zm193.826 311.989-46.265 26.886c8.864-5.151 14.142-13.475 16.529-25.461 3.407-17.251 1.85-35.514-4.809-55.92-2.844-8.795-6.106-17.836-9.578-27.317l46.265-26.886c3.472 9.48 6.734 18.522 9.578 27.317 6.659 20.406 8.216 38.669 4.809 55.92-2.387 11.986-7.665 20.309-16.529 25.461z" class="colore0e0e0 svgShape"/><path fill="#e0e0e0" d="m1060.137 723.637 46.264-26.886 5.099 2.944-46.264 26.886zM1065.236 726.581l46.265-26.886c7.544 4.355 14.39 7.907 21.029 10.854a299.776 299.776 0 0 0 8.875 3.837l-46.265 26.886a299.776 299.776 0 0 1-8.875-3.837c-6.639-2.947-13.485-6.499-21.029-10.854z" class="colore0e0e0 svgShape"/><path fill="#e0e0e0" d="m1095.139 741.272 46.265-26.886 1.188.525-46.265 26.886z" class="colore0e0e0 svgShape"/><path fill="#e0e0e0" d="m1096.327 741.797 46.265-26.886c1.957.65 19.781 6.919 29.08 9.234 1.608.366 2.937.649 4.266.853l-46.265 26.886c-1.329-.205-2.658-.488-4.266-.853-9.299-2.315-27.122-8.584-29.08-9.234zm85.74 62.526 46.265-26.886c-10.042 13.258-14.641 31.182-13.585 53.339.787 18.704 5.065 39.746 12.837 62.321 2.36 6.749 4.79 13.456 7.149 20.127l-46.265 26.886c-2.36-6.671-4.79-13.377-7.149-20.127-7.772-22.575-12.05-43.617-12.837-62.321-1.056-22.157 3.543-40.081 13.585-53.339zm-52.395-52.438 46.265-26.886c4.825.936 9.65 1.872 14.405 2.69 3.776.732 7.413 1.384 11.188 2.115l-46.265 26.886c-3.776-.732-7.412-1.383-11.188-2.115-4.755-.818-9.58-1.754-14.405-2.69z" class="colore0e0e0 svgShape"/><path fill="#e0e0e0" d="m1155.266 756.69 46.265-26.886c9.751 15.601 18.73 32.121 26.802 47.633l-46.265 26.886c-8.073-15.513-17.051-32.032-26.802-47.633z" class="colore0e0e0 svgShape"/><path fill="#4c4c5e" d="M1170.913 747.047c9.751 15.601 18.73 32.121 26.802 47.633-10.042 13.258-14.641 31.182-13.585 53.339.787 18.704 5.065 39.746 12.837 62.321 2.36 6.749 4.79 13.456 7.149 20.127 3.471 9.48 6.734 18.521 9.578 27.317 6.659 20.406 8.216 38.669 4.809 55.92-3.833 19.251-15.125 29.053-36.751 31.441-10.779 1.253-23.366-1.112-36.722-3.515l-6.643-1.266c-19.161-3.504-40.982-6.131-61.009-.33-19.998-28.993-41.693-51.485-60.881-70.044l-6.419-6.275c-13.327-13.002-25.955-25.196-36.692-38.871-21.472-27.27-32.742-50.098-36.453-73.705-3.298-21.122-1.643-37.53 5.11-50.193 2.954-5.448 6.257-10.698 9.701-16.186 2.46-3.888 4.85-7.812 7.24-11.74 7.875-13.62 12.328-29.621 13.218-47.518 1.108-20.746-4.466-44.207-14.4-69.078 8.203-6.199 18.338-11.94 28.145-16.166l11.094 10.749c4.815 4.708 9.559 9.296 14.373 13.925 1.256 1.209 2.582 2.455 3.838 3.664 9.7 8.815 27.5 23.114 29.525 24.762l1.187.847a293.809 293.809 0 0 0 8.448 6.086c6.983 4.995 13.827 9.348 21.371 13.704l5.099 2.944c7.544 4.355 14.39 7.907 21.029 10.854a299.776 299.776 0 0 0 8.875 3.837l1.188.525c1.957.65 19.781 6.919 29.08 9.234 1.608.366 2.937.649 4.266.853 4.825.936 9.65 1.872 14.405 2.69 3.776.731 7.412 1.383 11.188 2.115z" class="color4c4c5e svgShape"/><path fill="#fd546b" d="M1219.174 968.371c8.948 27.354 10.767 51.796 6.509 73.38-5.75 29.157-23.833 40.186-47.629 42.927-14.907 1.682-31.408-2.056-47.702-4.952-22.797-4.237-44.691-5.86-62.906 2.435-1.611.836-3.851 1.152-5.742 1.988-2.02-3.094-4.111-5.911-5.782-8.642-18.109-29.268-39.94-52.889-62.617-74.906-16.327-15.938-32.725-31.194-47.644-50.097-23.703-30.164-41.594-61.962-47.23-97.693-4.122-26.422-2.171-48.687 6.903-65.636 5.346-10.021 11.528-18.913 17.152-28.529 6.117-10.539 10.071-23.125 10.814-38.377 1.035-19.58-4.572-40.748-15.004-62.849-3.06-6.59-3.329-10.283-.174-12.723 12.412-9.958 25.242-19.352 40.161-25.128 3.182-1.251 6.589-.658 10.147 1.396 2.002 1.156 4.052 2.776 6.138 4.787 9.699 9.299 19.327 18.796 29.026 28.016.976 1.044 2.023 1.971 3 2.936 8.514 7.728 26.088 21.77 27.013 22.509 2.793 2.097 5.516 3.992 8.239 5.965 6.158 4.336 12.318 8.172 18.479 11.729.824.476 1.649.948 2.474 1.415.824.484 1.649.965 2.474 1.441 6.161 3.557 12.322 6.835 18.485 9.612 2.725 1.172 5.38 2.383 8.176 3.512.926.33 18.523 6.594 27.052 8.706 1.049.204 2.028.446 3.007.532 9.719 1.991 19.37 3.625 29.09 5.537a19.55 19.55 0 0 1 6.145 2.305c3.558 2.054 6.957 5.39 10.121 10.306 14.907 22.996 27.573 47.11 39.958 71.385 3.061 6.029 2.841 9.439-.316 12.44-10.523 10.002-16.232 24.637-15.242 45.386.655 16.058 4.454 33.121 10.492 50.677 5.549 16.069 11.731 32.099 16.933 48.21zm-16.318 54.975c3.407-17.25 1.849-35.514-4.809-55.92-2.844-8.795-6.106-17.836-9.578-27.316-2.359-6.671-4.79-13.378-7.15-20.127-7.772-22.575-12.05-43.617-12.837-62.321-1.056-22.157 3.542-40.081 13.585-53.339-8.072-15.513-17.051-32.032-26.802-47.633-3.776-.731-7.412-1.383-11.188-2.115-4.755-.818-9.58-1.754-14.405-2.69-1.329-.204-2.657-.487-4.265-.853-9.299-2.316-27.122-8.585-29.08-9.235l-1.188-.525a298.637 298.637 0 0 1-8.875-3.837c-6.638-2.947-13.484-6.499-21.028-10.854l-5.099-2.944c-7.544-4.355-14.388-8.709-21.371-13.704a293.267 293.267 0 0 1-8.448-6.086l-1.187-.847c-2.024-1.649-19.825-15.947-29.525-24.762-1.256-1.209-2.582-2.454-3.838-3.664a2382.99 2382.99 0 0 1-14.373-13.925L970.301 649.9c-9.807 4.226-18.85 10.341-27.054 16.54 9.935 24.871 14.417 47.959 13.309 68.704-.89 17.897-5.344 33.898-13.218 47.518-2.39 3.928-4.78 7.853-7.24 11.741-3.444 5.487-6.747 10.738-9.701 16.186-6.753 12.663-8.408 29.072-5.11 50.193 3.711 23.607 14.981 46.435 36.453 73.705 10.737 13.674 23.365 25.868 36.691 38.87l6.419 6.275c19.188 18.559 40.883 41.051 60.881 70.044 20.027-5.802 41.848-3.174 61.009.33l6.643 1.266c13.357 2.403 25.944 4.768 36.722 3.515 21.626-2.387 32.918-12.19 36.751-31.441" class="colorfd546b svgShape"/><path fill="#ff6c85" d="M1253.552 784.734c-12.363-24.29-25.053-48.356-39.932-71.332a34.46 34.46 0 0 0-6.119-7.169l-47.219 26.096a34.414 34.414 0 0 1 7.06 7.986c14.879 22.976 27.57 47.042 39.933 71.332 1.519 2.986 2.222 5.321 2.166 7.292l45.928-25.38c.599-2.292.117-5.027-1.817-8.825zm-50.108-81.615c-1.969-1.202-4.048-1.971-6.127-2.297-9.736-1.971-19.364-3.611-29.101-5.582-.985-.107-1.969-.326-2.954-.545-8.533-2.078-26.148-8.312-27.022-8.643-2.845-1.202-5.47-2.404-8.205-3.611-6.127-2.735-12.363-6.015-18.489-9.519-.875-.545-1.641-.983-2.517-1.528-.765-.438-1.641-.876-2.406-1.421-6.236-3.504-12.363-7.335-18.49-11.71-2.735-1.966-5.47-3.83-8.315-5.908-.875-.764-18.49-14.771-26.913-22.538-.985-.983-2.079-1.859-3.064-2.954-9.628-9.188-19.365-18.708-28.992-28.003-2.079-1.971-4.157-3.611-6.127-4.818-3.61-1.966-7.001-2.623-10.174-1.314-5.251 1.971-10.174 4.487-14.988 7.222l-46.278 26.913a105.805 105.805 0 0 1 14.988-7.329c3.172-1.202 6.564-.657 10.174 1.421a32.63 32.63 0 0 1 6.127 4.818c9.737 9.295 19.365 18.815 28.992 28.003.984.988 2.079 1.971 3.063 2.954 8.534 7.661 26.038 21.774 27.023 22.538 2.735 2.078 5.47 3.942 8.205 5.908 6.127 4.375 12.363 8.205 18.489 11.71.766.545 1.641.983 2.406 1.421.875.545 1.751.983 2.516 1.421 6.127 3.611 12.363 6.891 18.489 9.626 2.735 1.207 5.361 2.409 8.205 3.504.875.326 18.489 6.672 27.023 8.75 1.094.219 2.079.438 2.954.545 9.736 1.971 19.474 3.611 29.101 5.47 2.079.438 4.157 1.207 6.236 2.297 1.02.609 2.006 1.576 3.005 2.409l47.219-26.096c-1.326-1.191-2.659-2.351-4.053-3.114z" class="colorff6c85 svgShape"/><path fill="#e22951" d="M1248.519 893.262c-6.017-17.506-9.846-34.568-10.502-50.653-.985-20.786 4.704-35.45 15.207-45.402 1.169-1.09 1.794-2.313 2.144-3.649l-45.928 25.38c-.056 2.003-.896 3.638-2.495 5.182-10.502 9.957-16.192 24.616-15.207 45.402.656 15.973 4.485 33.04 10.502 50.653 5.58 16.085 11.706 32.057 16.957 48.249 8.971 27.351 10.722 51.748 6.455 73.298-3.501 17.837-11.597 28.884-22.866 35.45l46.278-26.913c11.268-6.565 19.364-17.613 22.865-35.45 4.267-21.55 2.407-45.947-6.454-73.298-5.25-16.085-11.377-32.164-16.956-48.249z" class="colore22951 svgShape"/><path fill="#ffc950" d="m1115.368 871.286-.297 96.057c0 3.024-2.007 6.047-5.973 8.352-4.015 2.329-9.244 3.494-14.498 3.469-5.279 0-10.533-1.14-14.547-3.469l-74-42.725c-4.04-2.329-6.072-5.403-6.072-8.475l.297-96.032c0 3.048 2.008 6.122 6.072 8.451l73.976 42.724c4.015 2.329 9.293 3.495 14.547 3.495 5.254 0 10.508-1.165 14.522-3.495 3.965-2.304 5.948-5.328 5.973-8.352z" class="colorffc950 svgShape"/><path fill="#545466" d="M1042.672 888.462c4.973 2.871 8.996 9.839 8.98 15.553-.012 4.414-2.432 6.807-5.821 6.334l-.042 14.899-6.457-3.728.042-14.899c-3.381-3.435-5.778-8.61-5.766-13.024.016-5.714 4.065-8.021 9.064-5.135z" class="color545466 svgShape"/><path fill="#ffe088" d="M1109.289 862.814c8.054 4.65 8.096 12.177.095 16.827-4.008 2.33-9.254 3.49-14.506 3.481-5.268 0-10.526-1.16-14.545-3.48l-73.987-42.717c-8.054-4.65-8.096-12.177-.095-16.827 3.993-2.32 9.238-3.481 14.506-3.48 5.252.009 10.526 1.16 14.545 3.48l73.987 42.716z" class="colorffe088 svgShape"/><path fill="#ffffff" d="m1102.398 832.285 1.188 39.559s-1.107 1.353-1.891 1.85c-1.06.647-2.435 1.021-3.915 1.07-1.456.048-2.876-.233-3.953-.81-.91-.488-1.543-1.149-1.874-1.913l-.227-1.168-1.324-43.671c-.6-20.296-15.748-44.652-33.771-54.239-4.428-2.369-9.146-3.53-13.633-3.382-12.849.424-21.887 10.834-21.453 24.717l.992 33.594c.044 1.339-.626 2.419-1.847 3.188-1.037.646-2.435 1.022-3.915 1.071-1.456.048-2.877-.234-3.954-.811-1.461-.798-2.207-2.043-2.061-3.318l-.056-.279-1.154-38.527c-.585-19.145 11.5-33.441 28.741-34.01 6.248-.206 12.864 1.456 19.135 4.799 23.985 12.799 44.149 45.218 44.972 72.28z" class="colorfff svgShape"/><path fill="#3a3a3a" d="M615.369 803.523c26.016 15.02 26.152 39.366.344 54.364-25.845 15.02-67.875 15.02-93.891 0-25.978-14.998-26.115-39.344-.269-54.363 25.808-14.999 67.838-14.999 93.816-.001z" class="color3a3a3a svgShape"/><path fill="#e04690" d="m628.294 810.19-.049 17.292c-.025 8.788-5.797 17.559-17.323 24.258-23.243 13.507-61.041 13.508-84.437 0-11.752-6.785-17.623-15.697-17.598-24.599l.049-17.291c-.025 8.902 5.846 17.814 17.598 24.599 23.396 13.508 61.194 13.507 84.437 0 11.526-6.7 17.298-15.471 17.323-24.259z" class="colore04690 svgShape"/><path fill="#ff7bba" d="M610.661 785.557c23.396 13.508 23.519 35.402.309 48.89-23.243 13.507-61.041 13.508-84.437 0-23.362-13.488-23.485-35.382-.242-48.89 23.21-13.488 61.008-13.488 84.37 0z" class="colorff7bba svgShape"/><path fill="#ffffff" d="M609.302 808.197c.909.525 1.559 1.213 1.796 2.003.61 2.019-1.721 3.944-5.223 4.291l-68.741 6.847-6.808-22.506c-.611-2.03 1.73-3.949 5.214-4.296 2.135-.215 4.205.209 5.634 1.035.909.525 1.559 1.212 1.8 1.999l4.588 15.176 56.111-5.585c2.129-.213 4.2.211 5.629 1.036z" class="colorfff svgShape"/><path fill="#3a3a3a" d="M727.32 738.025c26.016 15.02 26.152 39.365.344 54.364-25.845 15.02-67.875 15.02-93.891 0-25.978-14.998-26.115-39.344-.269-54.363 25.808-14.999 67.838-15 93.816-.001z" class="color3a3a3a svgShape"/><path fill="#255bb8" d="m740.244 744.691-.049 17.292c-.025 8.788-5.797 17.559-17.323 24.258-23.243 13.507-61.041 13.508-84.437 0-11.752-6.785-17.623-15.697-17.598-24.599l.049-17.291c-.025 8.902 5.846 17.814 17.598 24.599 23.396 13.508 61.194 13.508 84.437 0 11.526-6.699 17.298-15.471 17.323-24.259z" class="color255bb8 svgShape"/><path fill="#5576db" d="M722.612 720.059c23.396 13.508 23.519 35.402.309 48.89-23.243 13.507-61.041 13.508-84.437 0-23.362-13.488-23.485-35.382-.242-48.89 23.21-13.488 61.008-13.488 84.37 0z" class="color5576db svgShape"/><path fill="#ffffff" d="M720.089 730.174c1.028.594 1.248 1.708.93 2.597-.662 1.872-2.605 3.545-5.121 4.777-2.501 1.232-5.56 2.058-8.708 2.613-1.183.212-2.403.394-3.425.792-1.021.398-1.822 1.076-1.672 1.787.12.542.759 1.004 1.375 1.419 3.149 2.139 6.51 4.273 8.221 6.899.73 1.131 1.125 2.414.371 3.541-.754 1.127-2.979 1.969-4.956 1.58.306 1.139-.484 2.363-2.015 3.109-1.524.741-3.746.978-5.634.606.535 1.432-3.802 3.901-7.998 2.804-1.886 1.436-5.804 1.622-8.805 1.105-2.993-.512-5.493-1.694-7.891-2.859-1.783-.867-3.573-1.747-5.223-2.7-1.436-.829-2.767-1.713-3.896-2.691-1.881-1.635-3.134-3.473-4.636-5.226a36.749 36.749 0 0 0-3.302-3.333l19.24-11.181c.076.054.157.105.241.154 1.36.785 3.768.93 5.707.579 2.367-.424 4.402-1.343 6.761-1.779 2.892-.534 6.031-.309 9.064-.415 5.892-.212 11.47-1.694 16.248-3.697 1.189-.504 2.582-1.067 4.017-.847.442.065.808.193 1.107.366zM676.247 732.564l-23.096 13.421-13.175-7.606 23.096-13.422z" class="colorfff svgShape"/><path fill="#3a3a3a" d="M839.27 672.31c26.016 15.02 26.152 39.365.344 54.364-25.845 15.02-67.875 15.02-93.891 0-25.978-14.998-26.115-39.344-.269-54.363 25.808-14.999 67.839-15 93.816-.001z" class="color3a3a3a svgShape"/><path fill="#02d3b0" d="m852.195 678.976-.049 17.292c-.025 8.788-5.797 17.559-17.323 24.258-23.243 13.507-61.041 13.508-84.437 0-11.752-6.785-17.624-15.697-17.598-24.599l.049-17.291c-.025 8.902 5.846 17.814 17.598 24.599 23.396 13.508 61.194 13.507 84.437 0 11.526-6.699 17.298-15.471 17.323-24.259z" class="color02d3b0 svgShape"/><path fill="#94ed96" d="M834.563 654.344c23.396 13.508 23.519 35.402.309 48.89-23.243 13.507-61.041 13.508-84.437 0-23.362-13.488-23.485-35.382-.242-48.89 23.209-13.488 61.008-13.488 84.37 0z" class="color94ed96 svgShape"/><path fill="#ffffff" d="M805.09 662.125c.775.447 1.351 1.033 1.601 1.734l9.351 26.288c.841 2.397-2.797 4.511-6.929 4.027l-45.422-5.326c-1.211-.142-2.224-.474-2.999-.922-2.175-1.256-2.474-3.419-.029-4.84l36.072-20.962c2.444-1.421 6.18-1.254 8.355.001z" class="colorfff svgShape"/><path fill="#cfdee8" d="m590.511 1244.455-.081 26.437c-.081 3.488-2.352 6.972-6.973 9.649l-98.847 57.49c-9.244 5.353-24.327 5.353-33.652 0l-99.496-57.49c-4.703-2.677-7.055-6.244-6.974-9.811v-26.433c0 3.563 2.351 7.135 7.055 9.811l99.496 57.49c9.325 5.353 24.408 5.353 33.651 0l98.847-57.49c4.622-2.677 6.893-6.165 6.974-9.653z" class="colorcfdee8 svgShape"/><path fill="#e7f1f7" d="m583.544 1254.108-84.9 49.385-13.947 8.109c-9.244 5.349-24.327 5.349-33.652 0l-99.495-57.494c-7.379-4.217-9.001-10.623-4.622-15.731 1.054-1.378 2.595-2.593 4.541-3.73l98.847-57.49c9.244-5.353 24.327-5.353 33.651 0l99.496 57.49c9.325 5.354 9.325 14.112.081 19.461z" class="colore7f1f7 svgShape"/><path fill="#75d178" d="m510.483 1270.892-11.839 32.602-13.947 8.109c-9.244 5.349-24.327 5.349-33.652 0l-99.495-57.494c-7.379-4.217-9.001-10.623-4.622-15.731l110.361-13.62-19.948 55.218 73.142-9.084z" class="color75d178 svgShape"/><path fill="#ffb839" d="M502.759 1232.935c7.168 4.138 7.207 10.954-.02 15.154-7.125 4.14-18.891 4.14-26.059.001-7.273-4.199-7.313-11.015-.188-15.155 7.227-4.2 18.993-4.199 26.267 0z" class="colorffb839 svgShape"/><path fill="#cfdee8" d="m1020.828 1068.496-.046 22.538c-.046 3.132-2.074 6.267-6.222 8.664L747.896 1254.69l.046-22.537 266.71-154.993c4.102-2.397 6.176-5.532 6.176-8.664z" class="colorcfdee8 svgShape"/><path fill="#dce8f1" d="m747.965 1232.145-.064 22.541-355.107-205.021.064-22.541z" class="colordce8f1 svgShape"/><path fill="#e7f1f7" d="m1014.653 1077.16-266.71 154.993-355.107-205.044L625.257 892.07l34.289-19.909c2.904-1.751 6.499-2.858 10.324-3.319 6.867-.92 14.379.185 19.772 3.319l324.919 187.579c8.341 4.838 8.341 12.626.092 17.42z" class="colore7f1f7 svgShape"/><path fill="#e1e4ea" d="m1014.975 1068.079-42.263 24.565L625.257 892.07l34.289-19.909c2.904-1.751 6.499-2.858 10.324-3.319l345.105 199.237z" class="colore1e4ea svgShape"/><path fill="#ecedeb" d="m747.965 1232.145-355.107-205.021" class="colorecedeb svgShape"/><path fill="#ff6c85" d="m1017.759 1049.969-42.273 24.567-351.498-202.938 42.273-24.566z" class="colorff6c85 svgShape"/><path fill="#ea3d5b" d="M933.377 1013.663c5.788 3.341 5.818 8.763.068 12.105-5.75 3.342-15.11 3.342-20.898 0-5.797-3.347-5.828-8.769-.078-12.11 5.751-3.342 15.111-3.342 20.908.005zm27.607 15.938c5.788 3.341 5.818 8.763.068 12.105-5.75 3.342-15.11 3.342-20.898 0-5.797-3.347-5.828-8.769-.078-12.11 5.75-3.341 15.11-3.342 20.908.005zm27.596 15.933c5.797 3.347 5.828 8.769.078 12.11-5.75 3.342-15.11 3.342-20.907-.005-5.788-3.342-5.818-8.763-.068-12.105 5.75-3.341 15.11-3.341 20.897 0z" class="colorea3d5b svgShape"/><path fill="#ffe088" d="M933.377 1006.286c5.788 3.341 5.818 8.763.068 12.105-5.75 3.341-15.11 3.342-20.898 0-5.797-3.347-5.828-8.769-.078-12.11 5.751-3.342 15.111-3.342 20.908.005z" class="colorffe088 svgShape"/><path fill="#c2ecff" d="M960.984 1022.224c5.788 3.342 5.818 8.763.068 12.105-5.75 3.342-15.11 3.342-20.898 0-5.797-3.347-5.828-8.769-.078-12.11 5.75-3.342 15.11-3.342 20.908.005z" class="colorc2ecff svgShape"/><path fill="#acf9ac" d="M988.58 1038.157c5.797 3.347 5.828 8.769.078 12.11-5.75 3.342-15.11 3.342-20.907-.005-5.788-3.342-5.818-8.763-.068-12.105s15.11-3.341 20.897 0z" class="coloracf9ac svgShape"/><path fill="#ffffff" d="M697.874 868.657c-6.821-3.951-17.911-3.951-24.697 0-2.923 1.701-4.606 3.862-4.996 6.077h-18.088a2.613 2.613 0 1 0 0 5.227l19.541-.018c.851 1.099 2.055 2.126 3.614 3.029 6.839 3.933 17.911 3.933 24.697-.017 6.803-3.934 6.768-10.364-.071-14.298zm-3.685 12.119c-4.73 2.764-12.455 2.764-17.203.017-4.766-2.746-4.784-7.21-.053-9.974 4.73-2.728 12.437-2.728 17.203.018 4.748 2.746 4.766 7.21.053 9.939z" class="colorfff svgShape"/><path fill="#cfdee8" d="m779.721 1002.809-7.194 4.181-25.38-14.653 7.195-4.181zM801.876 1015.6l-7.194 4.181-14.075-8.126 7.195-4.181z" class="colorcfdee8 svgShape"/><path fill="#1352ab" d="m702.425 958.182-7.194 4.181-10.148-5.858 7.195-4.181z" class="color1352ab svgShape"/><path fill="#cfdee8" d="m746.26 983.49-7.194 4.181-35.754-20.642 7.194-4.181zM613.182 961.656l-7.195 4.18-26.082-15.058 7.194-4.181zM648.689 954.644l-7.194 4.181-37.842-21.848 7.194-4.181zM684.174 947.671l-7.172 4.168-49.6-28.637 7.171-4.168zM697.109 982.599l-7.194 4.181-10.329-5.963 7.194-4.181z" class="colorcfdee8 svgShape"/><path fill="#1352ab" d="m678.699 971.97-7.194 4.181-21.929-12.66 7.195-4.181z" class="color1352ab svgShape"/><path fill="#cfdee8" d="m884.775 1090.948-7.195 4.181-21.088-12.176 7.194-4.181zM798.808 1041.315l-7.195 4.181-33.459-19.318 7.194-4.181z" class="colorcfdee8 svgShape"/><path fill="#1352ab" d="m687.181 1031.865-7.194 4.181-21.406-12.358 7.194-4.181z" class="color1352ab svgShape"/><path fill="#cfdee8" d="m728.228 1028.078-7.194 4.181-54.867-31.678 7.194-4.181z" class="colorcfdee8 svgShape"/><path fill="#1352ab" d="m757.288 1017.344-7.194 4.18-26.06-15.045 7.194-4.181zM723.146 997.632l-7.194 4.181-17.955-10.367 7.194-4.181z" class="color1352ab svgShape"/><path fill="#cfdee8" d="m855.605 1074.106-7.195 4.181-30.078-17.365 7.195-4.181zM817.445 1052.075l-7.194 4.181-10.556-6.094 7.194-4.181z" class="colorcfdee8 svgShape"/><path fill="#1352ab" d="m765.885 1077.305-7.195 4.181-49.283-28.454 7.195-4.181z" class="color1352ab svgShape"/><path fill="#cfdee8" d="m775.059 1055.116-7.194 4.181-16.593-9.58 7.194-4.181zM793.719 1065.889l-7.194 4.181-10.579-6.107 7.195-4.181zM750.384 1040.87l-7.194 4.181-14.075-8.126 7.195-4.181zM636.132 974.906l-7.194 4.181-14.869-8.584 7.194-4.182zM665.279 991.734l-7.194 4.181-21.066-12.162 7.195-4.181zM837.301 1118.537l-7.195 4.181-37.228-21.494 7.194-4.181zM582.305 971.315l-7.194 4.181-18.932-10.93 7.194-4.181zM791.99 1092.377l-7.194 4.181-18.024-10.406 7.194-4.181z" class="colorcfdee8 svgShape"/><path fill="#1352ab" d="m657.717 1014.854-7.194 4.181-22.452-12.962 7.195-4.181zM708.521 1044.186l-7.194 4.181-13.258-7.655 7.194-4.181z" class="color1352ab svgShape"/><path fill="#cfdee8" d="m627.184 997.226-7.194 4.181-36.82-21.258 7.194-4.181zM553.469 1009.664l-7.195 4.181-37.569-21.69 7.194-4.181zM627.586 1052.456l-7.194 4.181-35.755-20.642 7.195-4.182zM517.458 1043.872l-7.194 4.181-14.869-8.585 7.194-4.181z" class="colorcfdee8 svgShape"/><path fill="#ff6c85" d="m560.025 1040.936-7.194 4.181-46.741-26.986 7.194-4.181z" class="colorff6c85 svgShape"/><path fill="#cfdee8" d="m583.728 1027.109-7.262 4.22-22.133-12.779 7.262-4.22z" class="colorcfdee8 svgShape"/><path fill="#ff6c85" d="m578.435 1051.565-7.194 4.181-10.329-5.964 7.194-4.181z" class="colorff6c85 svgShape"/><path fill="#cfdee8" d="m766.101 1159.914-7.195 4.181-21.088-12.176 7.194-4.181zM680.133 1110.281l-7.194 4.181-33.46-19.318 7.195-4.181zM609.554 1097.044l-7.194 4.181-54.867-31.678 7.194-4.181zM638.614 1086.309l-7.194 4.181-26.06-15.046 7.194-4.18z" class="colorcfdee8 svgShape"/><path fill="#ff6c85" d="m604.472 1066.598-7.194 4.18-17.955-10.366 7.194-4.181z" class="colorff6c85 svgShape"/><path fill="#cfdee8" d="m736.93 1143.072-7.194 4.181-30.078-17.365 7.195-4.181zM698.771 1121.041l-7.194 4.181-10.556-6.095 7.194-4.18z" class="colorcfdee8 svgShape"/><path fill="#ff6c85" d="m505.203 1009.285-7.194 4.181-13.03-7.523 7.194-4.181z" class="colorff6c85 svgShape"/><path fill="#cfdee8" d="m656.385 1124.082-7.194 4.18-16.593-9.58 7.194-4.181zM631.71 1109.836l-7.194 4.18-14.075-8.125 7.195-4.181zM546.605 1060.7l-7.194 4.181-21.066-12.162 7.195-4.181zM494.508 1030.621l-7.195 4.181-26.083-15.058 7.195-4.181z" class="colorcfdee8 svgShape"/><path fill="#ff65a7" d="M833.611 456.477c29.371 16.957 53.037 57.997 52.942 91.699-.096 33.749-23.917 47.372-53.288 30.414-10.056-5.806-19.465-14.453-27.47-24.634l-30.58-13.2 10.579-23.426c-3.568-10.281-5.537-20.742-5.51-30.509.095-33.702 23.996-47.278 53.327-30.344z" class="colorff65a7 svgShape"/><path fill="#ff7bba" d="M904.168 537.954c-.063 16.749-5.938 28.563-15.501 34.126l-17.626 10.248c9.563-5.561 15.438-17.374 15.501-34.126.125-33.751-23.564-74.753-52.94-91.752-14.751-8.503-28.126-9.314-37.814-3.687l17.626-10.251c9.625-5.564 23.064-4.813 37.814 3.751 29.377 16.938 53.065 58.001 52.94 91.691z" class="colorff7bba svgShape"/><path fill="#ffffff" d="M804.254 490.477c4.659 2.69 8.427 9.215 8.411 14.569-.015 5.353-3.807 7.514-8.466 4.824-4.659-2.69-8.426-9.215-8.411-14.569.015-5.353 3.808-7.514 8.466-4.824zm30.075 17.363c4.659 2.69 8.419 9.211 8.404 14.565-.015 5.353-3.8 7.518-8.459 4.829-4.666-2.694-8.427-9.215-8.411-14.569.015-5.353 3.8-7.518 8.466-4.825zm30.067 17.36c4.666 2.694 8.426 9.215 8.411 14.569-.015 5.353-3.8 7.518-8.466 4.825-4.659-2.69-8.419-9.211-8.404-14.565.016-5.354 3.801-7.519 8.459-4.829z" class="colorfff svgShape"/><path fill="#e2af98" d="m1037.387 1356.265-.036 12.887-21.766-10.649.036-12.887zM1015.845 1389.831l-.037 12.887-7.234-16.375.036-12.887zM1200.103 1390.005l-.036 12.887-14.784 14.379.037-12.886zM1071.977 1330.814l-.036 12.887-2.456-16.434.036-12.887zM1170.878 1323.063l-.036 12.887-10.375 15.471.036-12.886zM1142.006 1367.87l-.037 12.887c.015-5.207-3.48-10.306-10-14.071-1.936-1.118-4.138-2.118-6.595-2.968-16.355-5.609-37.162-2.608-46.818 6.745-3.287 3.174-4.853 6.662-4.863 10.105l.036-12.887c.01-3.443 1.576-6.932 4.863-10.105 9.656-9.353 30.463-12.354 46.818-6.745 2.457.85 4.659 1.85 6.595 2.968 6.521 3.765 10.015 8.864 10.001 14.071zM1207.215 1362.107l-.037 12.886-26.12 6.527.037-12.887z" class="colore2af98 svgShape"/><path fill="#e2af98" d="m1181.095 1368.633-.037 12.887c-.056 3.57-1.016 7.08-2.783 10.592l.036-12.887c1.767-3.512 2.728-7.022 2.784-10.592zM1044.208 1388.462l-.037 12.887-28.363 1.369.037-12.887zM1055.324 1397.144l-.036 12.887c-4.417-2.665-8.156-5.492-11.116-8.682l.036-12.887c2.96 3.19 6.698 6.017 11.116 8.682zM1185.32 1404.385l-.037 12.886-26.543-6.06.036-12.887z" class="colore2af98 svgShape"/><path fill="#e2af98" d="m1158.776 1398.324-.036 12.887c-4.588 2.549-9.48 4.72-14.953 6.41l.036-12.887c5.473-1.69 10.365-3.86 14.953-6.41zm-52.197 11.8-.036 12.887c-6.062-.015-12.227-.524-18.194-1.588l.036-12.886c5.967 1.064 12.133 1.573 18.194 1.587z" class="colore2af98 svgShape"/><path fill="#e2af98" d="m1088.386 1408.537-.037 12.886-18.54 12.587.036-12.886z" class="colore2af98 svgShape"/><path fill="#e2af98" d="m1069.845 1421.124-.036 12.886-24.899-8.624.037-12.886zM1146.279 1421.168l-.037 12.886-28.27 4.152.036-12.887z" class="colore2af98 svgShape"/><path fill="#fed0b5" d="M1158.776 1398.324c-4.588 2.549-9.48 4.72-14.953 6.41l2.456 16.434-28.271 4.152-11.429-15.195c-6.062-.014-12.227-.524-18.194-1.588l-18.54 12.587-24.899-8.624 10.377-15.356c-4.417-2.665-8.155-5.492-11.116-8.682l-28.363 1.37-7.234-16.375 26.095-6.541c.081-3.555 1.041-7.182 2.682-10.65l-21.766-10.649 14.859-14.452 26.643 6.003a78.4 78.4 0 0 1 14.854-6.352l-2.456-16.434 28.296-4.137 11.428 15.195c6.036 0 12.227.612 18.294 1.529l18.339-12.587 24.999 8.682-10.375 15.472c4.416 2.549 8.053 5.434 10.988 8.493l28.489-1.297 7.234 16.375-26.12 6.526c-.056 3.57-1.016 7.08-2.783 10.592l21.792 10.781-14.784 14.379-26.542-6.061zm-68.386-13.607c16.178 5.624 37.188 2.622 46.843-6.731 8.085-7.997 5.604-17.933-5.228-24.187-1.936-1.118-4.138-2.118-6.595-2.968-16.355-5.609-37.162-2.608-46.818 6.745-8.247 7.964-5.662 17.906 5.167 24.158 1.948 1.125 4.164 2.131 6.631 2.983" class="colorfed0b5 svgShape"/><path fill="#e2af98" d="m1118.008 1425.319-.036 12.887-11.429-15.195.036-12.887z" class="colore2af98 svgShape"/><path fill="#255bb8" d="m1223.824 1425.303-.036 12.886-3.08 11.29.037-12.886zM1159.263 1438.88l-.037 12.887-5.795-10.868.037-12.887zM1258.136 1448.539l-.037 12.887-15.934 6.6.037-12.887zM1142.373 1458.956l-.036 12.887-17.333-5.333.036-12.886z" class="color255bb8 svgShape"/><path fill="#255bb8" d="m1216.223 1460.839-.036 12.887c.01-3.677-2.528-7.194-6.957-9.751-2.458-1.419-5.498-2.542-9.008-3.233-12.438-2.389-25.697 1.37-29.83 8.508-.838 1.441-1.239 2.905-1.243 4.344l.036-12.886c.004-1.439.404-2.903 1.243-4.344 4.134-7.138 17.393-10.897 29.831-8.508 3.51.69 6.55 1.814 9.008 3.233 4.428 2.555 6.967 6.072 6.956 9.75zm26.891-.284-.037 12.887a17.63 17.63 0 0 1-.116 1.955l.036-12.887c.076-.654.115-1.306.117-1.955zm-100.857 12.906.037-12.887a17.297 17.297 0 0 0 .977 5.783l-.036 12.887a17.252 17.252 0 0 1-.978-5.783zM1254.057 1478.885l-.037 12.887-19.402-1.85.037-12.887z" class="color255bb8 svgShape"/><path fill="#255bb8" d="m1260.383 1467.93-.037 12.886-6.326 10.956.037-12.887zM1234.655 1477.035l-.036 12.887c-2.429 2.113-5.184 3.977-8.445 5.58l.036-12.886c3.26-1.604 6.016-3.468 8.445-5.581zM1155.093 1480.066l-.037 12.887-18.743 3.321.036-12.887zM1136.349 1483.387l-.036 12.887-9.013-10.431.037-12.887z" class="color255bb8 svgShape"/><path fill="#255bb8" d="m1164.753 1484.975-.036 12.887c-2.664-1.031-5.103-2.161-7.305-3.433a36.939 36.939 0 0 1-2.356-1.477l.036-12.887a36.939 36.939 0 0 0 2.356 1.477c2.202 1.272 4.641 2.403 7.305 3.433zm37.753 4.429-.037 12.887c-4.097.51-8.371.685-12.649.452l.036-12.887c4.278.232 8.553.058 12.65-.452z" class="color255bb8 svgShape"/><path fill="#255bb8" d="m1214.027 1498.669-.037 12.887-11.521-9.266.037-12.886z" class="color255bb8 svgShape"/><path fill="#255bb8" d="m1232.005 1493.483-.037 12.887-17.978 5.186.037-12.887zM1189.856 1489.856l-.036 12.886-9.299 10.052.036-12.886z" class="color255bb8 svgShape"/><path fill="#5576db" d="m1226.209 1482.615 5.795 10.868-17.978 5.186-11.521-9.266c-4.097.51-8.371.685-12.649.452l-9.299 10.052-18.935-3.7 3.131-11.232c-2.664-1.031-5.103-2.161-7.305-3.433a36.939 36.939 0 0 1-2.356-1.477l-18.744 3.321-9.012-10.431 15.934-6.6a17.306 17.306 0 0 1-.897-7.4l-17.333-5.332 6.376-11.013 19.427 1.806a39.61 39.61 0 0 1 8.42-5.536l-5.795-10.868 17.954-5.172 11.521 9.266c4.097-.51 8.397-.612 12.723-.525l9.149-10.023 19.01 3.745-3.08 11.29a49.22 49.22 0 0 1 7.302 3.428 41.86 41.86 0 0 1 2.232 1.38l18.845-3.293 9.012 10.431-15.934 6.6c.844 2.403 1.084 4.866.796 7.372l17.385 5.419-6.326 10.955-19.402-1.85c-2.429 2.113-5.185 3.977-8.446 5.58zm-40.995-8.974c12.286 2.419 25.697-1.37 29.806-8.493 2.9-5.11.395-10.51-5.753-14.06-2.458-1.419-5.498-2.542-9.008-3.233-12.438-2.389-25.697 1.37-29.831 8.508-2.964 5.095-.452 10.477 5.688 14.022 2.481 1.432 5.555 2.564 9.098 3.256" class="color5576db svgShape"/><path fill="#255bb8" d="m1180.557 1499.908-.036 12.886-18.935-3.7.036-12.886z" class="color255bb8 svgShape"/><path fill="#bf66f1" d="m1079.467 1442.714-.026 9.143-2.186 8.011.026-9.143zM1033.658 1452.348l-.026 9.143-4.112-7.711.026-9.144zM1103.812 1459.201l-.026 9.143-11.306 4.683.026-9.143zM1021.674 1466.592l-.026 9.144-12.299-3.784.026-9.143z" class="colorbf66f1 svgShape"/><path fill="#bf66f1" d="m1074.073 1467.928-.026 9.144c.007-2.609-1.794-5.105-4.936-6.919-1.744-1.007-3.901-1.804-6.391-2.294-8.825-1.695-18.233.972-21.166 6.036-.595 1.022-.879 2.061-.882 3.082l.026-9.144c.003-1.021.287-2.06.882-3.082 2.933-5.065 12.341-7.732 21.166-6.036 2.49.49 4.647 1.287 6.391 2.294 3.142 1.814 4.944 4.31 4.936 6.919zm19.08-.201-.026 9.143c-.001.46-.029.923-.083 1.387l.026-9.143c.054-.464.082-.927.083-1.387zm-71.562 9.157.026-9.143a12.26 12.26 0 0 0 .693 4.103l-.026 9.143a12.31 12.31 0 0 1-.693-4.103zM1100.917 1480.733l-.026 9.143-13.766-1.313.026-9.143z" class="colorbf66f1 svgShape"/><path fill="#bf66f1" d="m1105.406 1472.959-.026 9.144-4.489 7.773.026-9.143zM1087.151 1479.42l-.026 9.144a27.477 27.477 0 0 1-5.992 3.959l.026-9.143a27.516 27.516 0 0 0 5.992-3.96zM1030.699 1481.57l-.026 9.144-13.299 2.357.026-9.144z" class="colorbf66f1 svgShape"/><path fill="#bf66f1" d="m1017.4 1483.927-.026 9.144-6.395-7.402.026-9.143zM1037.553 1485.054l-.026 9.143c-1.89-.731-3.621-1.534-5.183-2.436a26.495 26.495 0 0 1-1.672-1.048l.026-9.143a26.21 26.21 0 0 0 1.672 1.048c1.563.902 3.293 1.705 5.183 2.436zm26.787 3.142-.026 9.144c-2.907.362-5.94.486-8.975.321l.026-9.143c3.036.164 6.068.04 8.975-.322z" class="colorbf66f1 svgShape"/><path fill="#bf66f1" d="m1072.515 1494.77-.026 9.144-8.175-6.575.026-9.143z" class="colorbf66f1 svgShape"/><path fill="#bf66f1" d="m1085.271 1491.09-.026 9.144-12.756 3.68.026-9.144zM1055.365 1488.517l-.026 9.143-6.598 7.132.026-9.143z" class="colorbf66f1 svgShape"/><path fill="#df85de" d="m1081.159 1483.379 4.112 7.711-12.756 3.68-8.174-6.574c-2.907.362-5.94.486-8.975.321l-6.598 7.132-13.435-2.625 2.222-7.97c-1.89-.731-3.621-1.534-5.183-2.436a26.495 26.495 0 0 1-1.672-1.048l-13.299 2.357-6.394-7.401 11.306-4.683a12.292 12.292 0 0 1-.637-5.251l-12.299-3.784 4.524-7.814 13.784 1.282a28.097 28.097 0 0 1 5.974-3.928l-4.112-7.711 12.739-3.67 8.175 6.574c2.907-.362 5.958-.434 9.028-.372l6.492-7.112 13.488 2.657-2.185 8.011a35.008 35.008 0 0 1 5.181 2.432c.548.317 1.077.643 1.584.979l13.371-2.336 6.394 7.401-11.306 4.683c.599 1.705.769 3.452.565 5.231l12.336 3.845-4.489 7.773-13.766-1.313a27.571 27.571 0 0 1-5.995 3.959zm-29.088-6.368c8.718 1.716 18.233-.972 21.149-6.026 2.058-3.626.28-7.457-4.082-9.976-1.744-1.007-3.901-1.804-6.391-2.294-8.825-1.695-18.233.972-21.166 6.036-2.103 3.615-.32 7.434 4.036 9.949 1.759 1.017 3.94 1.821 6.454 2.311" class="colordf85de svgShape"/><path fill="#bf66f1" d="m1048.767 1495.649-.026 9.143-13.435-2.625.026-9.143z" class="colorbf66f1 svgShape"/></svg>